# xmcd
#
# Track frame offsets: 
#        150
#        1567
#        17469
#        31832
#        47637
#        62752
#        76391
#        85882
#        100768
#
# Disc length: 1559 seconds
#
# Revision: 0
# Processed by: cddbd v1.5.2PL0 Copyright (c) Steve Scherf et al.
# Submitted via: ExactAudioCopy v0.99pb4
#
DISCID=54061509
DTITLE=J-Green - Solo Tape
DYEAR=2010
DGENRE=Gangsta Rap
TTITLE0=Intro
TTITLE1=You Broke Rile Number 1
TTITLE2=Gang Signs
TTITLE3=In My Car (Puff Bus)
TTITLE4=Till I Drop
TTITLE5=Bring 'Em To The Dark
TTITLE6=I Hustle Stupid
TTITLE7=Didication
TTITLE8=All We Do Is Shoot
EXTD=
EXTT0=
EXTT1=
EXTT2=
EXTT3=
EXTT4=
EXTT5=
EXTT6=
EXTT7=
EXTT8=
PLAYORDER=
